{
	"patcher" : 	{
		"fileversion" : 1,
		"appversion" : 		{
			"major" : 6,
			"minor" : 1,
			"revision" : 6,
			"architecture" : "x64"
		}
,
		"rect" : [ 628.0, 354.0, 640.0, 480.0 ],
		"bglocked" : 0,
		"openinpresentation" : 1,
		"default_fontsize" : 10.0,
		"default_fontface" : 0,
		"default_fontname" : "Arial",
		"gridonopen" : 0,
		"gridsize" : [ 15.0, 15.0 ],
		"gridsnaponopen" : 0,
		"statusbarvisible" : 2,
		"toolbarvisible" : 1,
		"boxanimatetime" : 200,
		"imprint" : 0,
		"enablehscroll" : 1,
		"enablevscroll" : 1,
		"devicewidth" : 0.0,
		"description" : "",
		"digest" : "",
		"tags" : "",
		"boxes" : [ 			{
				"box" : 				{
					"appearance" : 1,
					"id" : "obj-695",
					"maxclass" : "live.dial",
					"numinlets" : 1,
					"numoutlets" : 2,
					"outlettype" : [ "", "float" ],
					"parameter_enable" : 1,
					"patching_rect" : [ 831.0, 46.474609, 25.0, 36.0 ],
					"presentation" : 1,
					"presentation_rect" : [ 1573.284912, 17.0, 25.0, 36.0 ],
					"saved_attribute_attributes" : 					{
						"valueof" : 						{
							"parameter_longname" : "live.dial[250]",
							"parameter_shortname" : "5",
							"parameter_type" : 1,
							"parameter_mmax" : 1.0,
							"parameter_unitstyle" : 0
						}

					}
,
					"varname" : "live.dial[207]"
				}

			}
, 			{
				"box" : 				{
					"fontname" : "Arial",
					"fontsize" : 10.0,
					"id" : "obj-696",
					"maxclass" : "newobj",
					"numinlets" : 1,
					"numoutlets" : 1,
					"outlettype" : [ "" ],
					"patching_rect" : [ 817.0, 19.474609, 63.0, 18.0 ],
					"text" : "prepend set",
					"textcolor" : [ 0.101961, 0.121569, 0.172549, 1.0 ]
				}

			}
, 			{
				"box" : 				{
					"fontname" : "Arial",
					"fontsize" : 10.0,
					"id" : "obj-697",
					"linecount" : 7,
					"maxclass" : "newobj",
					"numinlets" : 1,
					"numoutlets" : 3,
					"outlettype" : [ "", "", "" ],
					"patching_rect" : [ 831.0, 92.474609, 49.0, 85.0 ],
					"restore" : [ 0 ],
					"saved_object_attributes" : 					{
						"parameter_enable" : 0
					}
,
					"text" : "pattr firstCtrl @bindto parent::brain::tvfEnvLevel5Up1",
					"textcolor" : [ 0.101961, 0.121569, 0.172549, 1.0 ],
					"varname" : "firstCtrl[211]"
				}

			}
, 			{
				"box" : 				{
					"appearance" : 1,
					"id" : "obj-671",
					"maxclass" : "live.dial",
					"numinlets" : 1,
					"numoutlets" : 2,
					"outlettype" : [ "", "float" ],
					"parameter_enable" : 1,
					"patching_rect" : [ 757.0, 46.474609, 25.0, 36.0 ],
					"presentation" : 1,
					"presentation_rect" : [ 1543.140625, 17.0, 25.0, 36.0 ],
					"saved_attribute_attributes" : 					{
						"valueof" : 						{
							"parameter_longname" : "live.dial[245]",
							"parameter_shortname" : "4",
							"parameter_type" : 1,
							"parameter_mmax" : 100.0,
							"parameter_unitstyle" : 0
						}

					}
,
					"varname" : "live.dial[199]"
				}

			}
, 			{
				"box" : 				{
					"fontname" : "Arial",
					"fontsize" : 10.0,
					"id" : "obj-672",
					"maxclass" : "newobj",
					"numinlets" : 1,
					"numoutlets" : 1,
					"outlettype" : [ "" ],
					"patching_rect" : [ 743.0, 19.474609, 63.0, 18.0 ],
					"text" : "prepend set",
					"textcolor" : [ 0.101961, 0.121569, 0.172549, 1.0 ]
				}

			}
, 			{
				"box" : 				{
					"fontname" : "Arial",
					"fontsize" : 10.0,
					"id" : "obj-673",
					"linecount" : 7,
					"maxclass" : "newobj",
					"numinlets" : 1,
					"numoutlets" : 3,
					"outlettype" : [ "", "", "" ],
					"patching_rect" : [ 757.0, 92.474609, 50.0, 85.0 ],
					"restore" : [ 0 ],
					"saved_object_attributes" : 					{
						"parameter_enable" : 0
					}
,
					"text" : "pattr firstCtrl @bindto parent::brain::tvfEnvLevel4Up1",
					"textcolor" : [ 0.101961, 0.121569, 0.172549, 1.0 ],
					"varname" : "firstCtrl[203]"
				}

			}
, 			{
				"box" : 				{
					"appearance" : 1,
					"id" : "obj-683",
					"maxclass" : "live.dial",
					"numinlets" : 1,
					"numoutlets" : 2,
					"outlettype" : [ "", "float" ],
					"parameter_enable" : 1,
					"patching_rect" : [ 675.0, 46.474609, 25.0, 36.0 ],
					"presentation" : 1,
					"presentation_rect" : [ 1518.996338, 17.0, 25.0, 36.0 ],
					"saved_attribute_attributes" : 					{
						"valueof" : 						{
							"parameter_longname" : "live.dial[248]",
							"parameter_shortname" : "3",
							"parameter_type" : 1,
							"parameter_mmax" : 100.0,
							"parameter_unitstyle" : 0
						}

					}
,
					"varname" : "live.dial[203]"
				}

			}
, 			{
				"box" : 				{
					"fontname" : "Arial",
					"fontsize" : 10.0,
					"id" : "obj-684",
					"maxclass" : "newobj",
					"numinlets" : 1,
					"numoutlets" : 1,
					"outlettype" : [ "" ],
					"patching_rect" : [ 661.0, 19.474609, 63.0, 18.0 ],
					"text" : "prepend set",
					"textcolor" : [ 0.101961, 0.121569, 0.172549, 1.0 ]
				}

			}
, 			{
				"box" : 				{
					"fontname" : "Arial",
					"fontsize" : 10.0,
					"id" : "obj-685",
					"linecount" : 7,
					"maxclass" : "newobj",
					"numinlets" : 1,
					"numoutlets" : 3,
					"outlettype" : [ "", "", "" ],
					"patching_rect" : [ 675.0, 92.474609, 50.0, 85.0 ],
					"restore" : [ 0 ],
					"saved_object_attributes" : 					{
						"parameter_enable" : 0
					}
,
					"text" : "pattr firstCtrl @bindto parent::brain::tvfEnvLevel3Up1",
					"textcolor" : [ 0.101961, 0.121569, 0.172549, 1.0 ],
					"varname" : "firstCtrl[207]"
				}

			}
, 			{
				"box" : 				{
					"appearance" : 1,
					"id" : "obj-659",
					"maxclass" : "live.dial",
					"numinlets" : 1,
					"numoutlets" : 2,
					"outlettype" : [ "", "float" ],
					"parameter_enable" : 1,
					"patching_rect" : [ 589.0, 46.474609, 25.0, 36.0 ],
					"presentation" : 1,
					"presentation_rect" : [ 1489.852051, 17.0, 25.0, 36.0 ],
					"saved_attribute_attributes" : 					{
						"valueof" : 						{
							"parameter_longname" : "live.dial[241]",
							"parameter_shortname" : "2",
							"parameter_type" : 1,
							"parameter_mmax" : 100.0,
							"parameter_unitstyle" : 0
						}

					}
,
					"varname" : "live.dial[195]"
				}

			}
, 			{
				"box" : 				{
					"fontname" : "Arial",
					"fontsize" : 10.0,
					"id" : "obj-660",
					"maxclass" : "newobj",
					"numinlets" : 1,
					"numoutlets" : 1,
					"outlettype" : [ "" ],
					"patching_rect" : [ 575.0, 19.474609, 63.0, 18.0 ],
					"text" : "prepend set",
					"textcolor" : [ 0.101961, 0.121569, 0.172549, 1.0 ]
				}

			}
, 			{
				"box" : 				{
					"fontname" : "Arial",
					"fontsize" : 10.0,
					"id" : "obj-661",
					"linecount" : 7,
					"maxclass" : "newobj",
					"numinlets" : 1,
					"numoutlets" : 3,
					"outlettype" : [ "", "", "" ],
					"patching_rect" : [ 589.0, 92.474609, 55.0, 85.0 ],
					"restore" : [ 0 ],
					"saved_object_attributes" : 					{
						"parameter_enable" : 0
					}
,
					"text" : "pattr firstCtrl @bindto parent::brain::tvfEnvLevel2Up1",
					"textcolor" : [ 0.101961, 0.121569, 0.172549, 1.0 ],
					"varname" : "firstCtrl[199]"
				}

			}
, 			{
				"box" : 				{
					"appearance" : 1,
					"id" : "obj-647",
					"maxclass" : "live.dial",
					"numinlets" : 1,
					"numoutlets" : 2,
					"outlettype" : [ "", "float" ],
					"parameter_enable" : 1,
					"patching_rect" : [ 507.0, 46.474609, 25.0, 36.0 ],
					"presentation" : 1,
					"presentation_rect" : [ 1460.70752, 17.0, 25.0, 36.0 ],
					"saved_attribute_attributes" : 					{
						"valueof" : 						{
							"parameter_longname" : "live.dial[294]",
							"parameter_shortname" : "1",
							"parameter_type" : 1,
							"parameter_mmax" : 100.0,
							"parameter_unitstyle" : 0
						}

					}
,
					"varname" : "live.dial[211]"
				}

			}
, 			{
				"box" : 				{
					"fontname" : "Arial",
					"fontsize" : 10.0,
					"id" : "obj-648",
					"maxclass" : "newobj",
					"numinlets" : 1,
					"numoutlets" : 1,
					"outlettype" : [ "" ],
					"patching_rect" : [ 493.0, 19.474609, 63.0, 18.0 ],
					"text" : "prepend set",
					"textcolor" : [ 0.101961, 0.121569, 0.172549, 1.0 ]
				}

			}
, 			{
				"box" : 				{
					"fontname" : "Arial",
					"fontsize" : 10.0,
					"id" : "obj-649",
					"linecount" : 9,
					"maxclass" : "newobj",
					"numinlets" : 1,
					"numoutlets" : 3,
					"outlettype" : [ "", "", "" ],
					"patching_rect" : [ 507.0, 92.474609, 43.0, 107.0 ],
					"restore" : [ 0 ],
					"saved_object_attributes" : 					{
						"parameter_enable" : 0
					}
,
					"text" : "pattr firstCtrl @bindto parent::brain::tvfEnvLevel1Up1",
					"textcolor" : [ 0.101961, 0.121569, 0.172549, 1.0 ],
					"varname" : "firstCtrl[215]"
				}

			}
, 			{
				"box" : 				{
					"appearance" : 1,
					"id" : "obj-319",
					"maxclass" : "live.dial",
					"numinlets" : 1,
					"numoutlets" : 2,
					"outlettype" : [ "", "float" ],
					"parameter_enable" : 1,
					"patching_rect" : [ 426.0, 46.474609, 25.0, 36.0 ],
					"presentation" : 1,
					"presentation_rect" : [ 1429.563477, 17.0, 25.0, 36.0 ],
					"saved_attribute_attributes" : 					{
						"valueof" : 						{
							"parameter_longname" : "live.dial[100]",
							"parameter_shortname" : "5",
							"parameter_type" : 1,
							"parameter_mmax" : 100.0,
							"parameter_unitstyle" : 0
						}

					}
,
					"varname" : "live.dial[100]"
				}

			}
, 			{
				"box" : 				{
					"fontname" : "Arial",
					"fontsize" : 10.0,
					"id" : "obj-320",
					"maxclass" : "newobj",
					"numinlets" : 1,
					"numoutlets" : 1,
					"outlettype" : [ "" ],
					"patching_rect" : [ 412.0, 19.474609, 63.0, 18.0 ],
					"text" : "prepend set",
					"textcolor" : [ 0.101961, 0.121569, 0.172549, 1.0 ]
				}

			}
, 			{
				"box" : 				{
					"fontname" : "Arial",
					"fontsize" : 10.0,
					"id" : "obj-321",
					"linecount" : 7,
					"maxclass" : "newobj",
					"numinlets" : 1,
					"numoutlets" : 3,
					"outlettype" : [ "", "", "" ],
					"patching_rect" : [ 426.0, 92.474609, 49.0, 85.0 ],
					"restore" : [ 0 ],
					"saved_object_attributes" : 					{
						"parameter_enable" : 0
					}
,
					"text" : "pattr firstCtrl @bindto parent::brain::tvfEnvTime5Up1",
					"textcolor" : [ 0.101961, 0.121569, 0.172549, 1.0 ],
					"varname" : "firstCtrl[104]"
				}

			}
, 			{
				"box" : 				{
					"appearance" : 1,
					"id" : "obj-307",
					"maxclass" : "live.dial",
					"numinlets" : 1,
					"numoutlets" : 2,
					"outlettype" : [ "", "float" ],
					"parameter_enable" : 1,
					"patching_rect" : [ 343.0, 46.474609, 25.0, 36.0 ],
					"presentation" : 1,
					"presentation_rect" : [ 1404.418945, 17.0, 25.0, 36.0 ],
					"saved_attribute_attributes" : 					{
						"valueof" : 						{
							"parameter_longname" : "live.dial[96]",
							"parameter_shortname" : "4",
							"parameter_type" : 1,
							"parameter_mmax" : 100.0,
							"parameter_unitstyle" : 0
						}

					}
,
					"varname" : "live.dial[96]"
				}

			}
, 			{
				"box" : 				{
					"fontname" : "Arial",
					"fontsize" : 10.0,
					"id" : "obj-308",
					"maxclass" : "newobj",
					"numinlets" : 1,
					"numoutlets" : 1,
					"outlettype" : [ "" ],
					"patching_rect" : [ 329.0, 19.474609, 63.0, 18.0 ],
					"text" : "prepend set",
					"textcolor" : [ 0.101961, 0.121569, 0.172549, 1.0 ]
				}

			}
, 			{
				"box" : 				{
					"fontname" : "Arial",
					"fontsize" : 10.0,
					"id" : "obj-309",
					"linecount" : 6,
					"maxclass" : "newobj",
					"numinlets" : 1,
					"numoutlets" : 3,
					"outlettype" : [ "", "", "" ],
					"patching_rect" : [ 343.0, 92.474609, 56.0, 74.0 ],
					"restore" : [ 0 ],
					"saved_object_attributes" : 					{
						"parameter_enable" : 0
					}
,
					"text" : "pattr firstCtrl @bindto parent::brain::tvfEnvTime4Up1",
					"textcolor" : [ 0.101961, 0.121569, 0.172549, 1.0 ],
					"varname" : "firstCtrl[100]"
				}

			}
, 			{
				"box" : 				{
					"appearance" : 1,
					"id" : "obj-295",
					"maxclass" : "live.dial",
					"numinlets" : 1,
					"numoutlets" : 2,
					"outlettype" : [ "", "float" ],
					"parameter_enable" : 1,
					"patching_rect" : [ 248.0, 46.474609, 25.0, 36.0 ],
					"presentation" : 1,
					"presentation_rect" : [ 1379.274658, 17.0, 25.0, 36.0 ],
					"saved_attribute_attributes" : 					{
						"valueof" : 						{
							"parameter_longname" : "live.dial[92]",
							"parameter_shortname" : "3",
							"parameter_type" : 1,
							"parameter_mmax" : 100.0,
							"parameter_unitstyle" : 0
						}

					}
,
					"varname" : "live.dial[92]"
				}

			}
, 			{
				"box" : 				{
					"fontname" : "Arial",
					"fontsize" : 10.0,
					"id" : "obj-296",
					"maxclass" : "newobj",
					"numinlets" : 1,
					"numoutlets" : 1,
					"outlettype" : [ "" ],
					"patching_rect" : [ 234.0, 19.474609, 63.0, 18.0 ],
					"text" : "prepend set",
					"textcolor" : [ 0.101961, 0.121569, 0.172549, 1.0 ]
				}

			}
, 			{
				"box" : 				{
					"fontname" : "Arial",
					"fontsize" : 10.0,
					"id" : "obj-297",
					"linecount" : 6,
					"maxclass" : "newobj",
					"numinlets" : 1,
					"numoutlets" : 3,
					"outlettype" : [ "", "", "" ],
					"patching_rect" : [ 248.0, 92.474609, 57.0, 74.0 ],
					"restore" : [ 0 ],
					"saved_object_attributes" : 					{
						"parameter_enable" : 0
					}
,
					"text" : "pattr firstCtrl @bindto parent::brain::tvfEnvTime3Up1",
					"textcolor" : [ 0.101961, 0.121569, 0.172549, 1.0 ],
					"varname" : "firstCtrl[96]"
				}

			}
, 			{
				"box" : 				{
					"appearance" : 1,
					"id" : "obj-283",
					"maxclass" : "live.dial",
					"numinlets" : 1,
					"numoutlets" : 2,
					"outlettype" : [ "", "float" ],
					"parameter_enable" : 1,
					"patching_rect" : [ 148.0, 46.474609, 25.0, 36.0 ],
					"presentation" : 1,
					"presentation_rect" : [ 1353.130371, 17.0, 25.0, 36.0 ],
					"saved_attribute_attributes" : 					{
						"valueof" : 						{
							"parameter_longname" : "live.dial[88]",
							"parameter_shortname" : "2",
							"parameter_type" : 1,
							"parameter_mmax" : 100.0,
							"parameter_unitstyle" : 0
						}

					}
,
					"varname" : "live.dial[88]"
				}

			}
, 			{
				"box" : 				{
					"fontname" : "Arial",
					"fontsize" : 10.0,
					"id" : "obj-284",
					"maxclass" : "newobj",
					"numinlets" : 1,
					"numoutlets" : 1,
					"outlettype" : [ "" ],
					"patching_rect" : [ 134.0, 19.474609, 63.0, 18.0 ],
					"text" : "prepend set",
					"textcolor" : [ 0.101961, 0.121569, 0.172549, 1.0 ]
				}

			}
, 			{
				"box" : 				{
					"fontname" : "Arial",
					"fontsize" : 10.0,
					"id" : "obj-285",
					"linecount" : 6,
					"maxclass" : "newobj",
					"numinlets" : 1,
					"numoutlets" : 3,
					"outlettype" : [ "", "", "" ],
					"patching_rect" : [ 148.0, 92.474609, 62.0, 74.0 ],
					"restore" : [ 0 ],
					"saved_object_attributes" : 					{
						"parameter_enable" : 0
					}
,
					"text" : "pattr firstCtrl @bindto parent::brain::tvfEnvTime2Up1",
					"textcolor" : [ 0.101961, 0.121569, 0.172549, 1.0 ],
					"varname" : "firstCtrl[92]"
				}

			}
, 			{
				"box" : 				{
					"appearance" : 1,
					"id" : "obj-271",
					"maxclass" : "live.dial",
					"numinlets" : 1,
					"numoutlets" : 2,
					"outlettype" : [ "", "float" ],
					"parameter_enable" : 1,
					"patching_rect" : [ 29.0, 46.474609, 25.0, 36.0 ],
					"presentation" : 1,
					"presentation_rect" : [ 1324.986084, 17.0, 25.0, 36.0 ],
					"saved_attribute_attributes" : 					{
						"valueof" : 						{
							"parameter_longname" : "live.dial[84]",
							"parameter_shortname" : "1",
							"parameter_type" : 1,
							"parameter_mmax" : 100.0,
							"parameter_unitstyle" : 0
						}

					}
,
					"varname" : "live.dial[84]"
				}

			}
, 			{
				"box" : 				{
					"fontname" : "Arial",
					"fontsize" : 10.0,
					"id" : "obj-272",
					"maxclass" : "newobj",
					"numinlets" : 1,
					"numoutlets" : 1,
					"outlettype" : [ "" ],
					"patching_rect" : [ 15.0, 19.474609, 63.0, 18.0 ],
					"text" : "prepend set",
					"textcolor" : [ 0.101961, 0.121569, 0.172549, 1.0 ]
				}

			}
, 			{
				"box" : 				{
					"fontname" : "Arial",
					"fontsize" : 10.0,
					"id" : "obj-273",
					"linecount" : 6,
					"maxclass" : "newobj",
					"numinlets" : 1,
					"numoutlets" : 3,
					"outlettype" : [ "", "", "" ],
					"patching_rect" : [ 29.0, 92.474609, 55.0, 74.0 ],
					"restore" : [ 0 ],
					"saved_object_attributes" : 					{
						"parameter_enable" : 0
					}
,
					"text" : "pattr firstCtrl @bindto parent::brain::tvfEnvTime1Up1",
					"textcolor" : [ 0.101961, 0.121569, 0.172549, 1.0 ],
					"varname" : "firstCtrl[88]"
				}

			}
 ],
		"lines" : [ 			{
				"patchline" : 				{
					"destination" : [ "obj-273", 0 ],
					"disabled" : 0,
					"hidden" : 0,
					"source" : [ "obj-271", 0 ]
				}

			}
, 			{
				"patchline" : 				{
					"destination" : [ "obj-271", 0 ],
					"disabled" : 0,
					"hidden" : 0,
					"source" : [ "obj-272", 0 ]
				}

			}
, 			{
				"patchline" : 				{
					"destination" : [ "obj-272", 0 ],
					"disabled" : 0,
					"hidden" : 0,
					"source" : [ "obj-273", 0 ]
				}

			}
, 			{
				"patchline" : 				{
					"destination" : [ "obj-285", 0 ],
					"disabled" : 0,
					"hidden" : 0,
					"source" : [ "obj-283", 0 ]
				}

			}
, 			{
				"patchline" : 				{
					"destination" : [ "obj-283", 0 ],
					"disabled" : 0,
					"hidden" : 0,
					"source" : [ "obj-284", 0 ]
				}

			}
, 			{
				"patchline" : 				{
					"destination" : [ "obj-284", 0 ],
					"disabled" : 0,
					"hidden" : 0,
					"source" : [ "obj-285", 0 ]
				}

			}
, 			{
				"patchline" : 				{
					"destination" : [ "obj-297", 0 ],
					"disabled" : 0,
					"hidden" : 0,
					"source" : [ "obj-295", 0 ]
				}

			}
, 			{
				"patchline" : 				{
					"destination" : [ "obj-295", 0 ],
					"disabled" : 0,
					"hidden" : 0,
					"source" : [ "obj-296", 0 ]
				}

			}
, 			{
				"patchline" : 				{
					"destination" : [ "obj-296", 0 ],
					"disabled" : 0,
					"hidden" : 0,
					"source" : [ "obj-297", 0 ]
				}

			}
, 			{
				"patchline" : 				{
					"destination" : [ "obj-309", 0 ],
					"disabled" : 0,
					"hidden" : 0,
					"source" : [ "obj-307", 0 ]
				}

			}
, 			{
				"patchline" : 				{
					"destination" : [ "obj-307", 0 ],
					"disabled" : 0,
					"hidden" : 0,
					"source" : [ "obj-308", 0 ]
				}

			}
, 			{
				"patchline" : 				{
					"destination" : [ "obj-308", 0 ],
					"disabled" : 0,
					"hidden" : 0,
					"source" : [ "obj-309", 0 ]
				}

			}
, 			{
				"patchline" : 				{
					"destination" : [ "obj-321", 0 ],
					"disabled" : 0,
					"hidden" : 0,
					"source" : [ "obj-319", 0 ]
				}

			}
, 			{
				"patchline" : 				{
					"destination" : [ "obj-319", 0 ],
					"disabled" : 0,
					"hidden" : 0,
					"source" : [ "obj-320", 0 ]
				}

			}
, 			{
				"patchline" : 				{
					"destination" : [ "obj-320", 0 ],
					"disabled" : 0,
					"hidden" : 0,
					"source" : [ "obj-321", 0 ]
				}

			}
, 			{
				"patchline" : 				{
					"destination" : [ "obj-649", 0 ],
					"disabled" : 0,
					"hidden" : 0,
					"source" : [ "obj-647", 0 ]
				}

			}
, 			{
				"patchline" : 				{
					"destination" : [ "obj-647", 0 ],
					"disabled" : 0,
					"hidden" : 0,
					"source" : [ "obj-648", 0 ]
				}

			}
, 			{
				"patchline" : 				{
					"destination" : [ "obj-648", 0 ],
					"disabled" : 0,
					"hidden" : 0,
					"source" : [ "obj-649", 0 ]
				}

			}
, 			{
				"patchline" : 				{
					"destination" : [ "obj-661", 0 ],
					"disabled" : 0,
					"hidden" : 0,
					"source" : [ "obj-659", 0 ]
				}

			}
, 			{
				"patchline" : 				{
					"destination" : [ "obj-659", 0 ],
					"disabled" : 0,
					"hidden" : 0,
					"source" : [ "obj-660", 0 ]
				}

			}
, 			{
				"patchline" : 				{
					"destination" : [ "obj-660", 0 ],
					"disabled" : 0,
					"hidden" : 0,
					"source" : [ "obj-661", 0 ]
				}

			}
, 			{
				"patchline" : 				{
					"destination" : [ "obj-673", 0 ],
					"disabled" : 0,
					"hidden" : 0,
					"source" : [ "obj-671", 0 ]
				}

			}
, 			{
				"patchline" : 				{
					"destination" : [ "obj-671", 0 ],
					"disabled" : 0,
					"hidden" : 0,
					"source" : [ "obj-672", 0 ]
				}

			}
, 			{
				"patchline" : 				{
					"destination" : [ "obj-672", 0 ],
					"disabled" : 0,
					"hidden" : 0,
					"source" : [ "obj-673", 0 ]
				}

			}
, 			{
				"patchline" : 				{
					"destination" : [ "obj-685", 0 ],
					"disabled" : 0,
					"hidden" : 0,
					"source" : [ "obj-683", 0 ]
				}

			}
, 			{
				"patchline" : 				{
					"destination" : [ "obj-683", 0 ],
					"disabled" : 0,
					"hidden" : 0,
					"source" : [ "obj-684", 0 ]
				}

			}
, 			{
				"patchline" : 				{
					"destination" : [ "obj-684", 0 ],
					"disabled" : 0,
					"hidden" : 0,
					"source" : [ "obj-685", 0 ]
				}

			}
, 			{
				"patchline" : 				{
					"destination" : [ "obj-697", 0 ],
					"disabled" : 0,
					"hidden" : 0,
					"source" : [ "obj-695", 0 ]
				}

			}
, 			{
				"patchline" : 				{
					"destination" : [ "obj-695", 0 ],
					"disabled" : 0,
					"hidden" : 0,
					"source" : [ "obj-696", 0 ]
				}

			}
, 			{
				"patchline" : 				{
					"destination" : [ "obj-696", 0 ],
					"disabled" : 0,
					"hidden" : 0,
					"source" : [ "obj-697", 0 ]
				}

			}
 ],
		"parameters" : 		{
			"obj-683" : [ "live.dial[248]", "3", 0 ],
			"obj-319" : [ "live.dial[100]", "5", 0 ],
			"obj-671" : [ "live.dial[245]", "4", 0 ],
			"obj-295" : [ "live.dial[92]", "3", 0 ],
			"obj-695" : [ "live.dial[250]", "5", 0 ],
			"obj-307" : [ "live.dial[96]", "4", 0 ],
			"obj-283" : [ "live.dial[88]", "2", 0 ],
			"obj-271" : [ "live.dial[84]", "1", 0 ],
			"obj-659" : [ "live.dial[241]", "2", 0 ],
			"obj-647" : [ "live.dial[294]", "1", 0 ]
		}
,
		"dependency_cache" : [  ]
	}

}
